<svg width="150" height="55" viewBox="0 0 150 55" fill="none" xmlns="http://www.w3.org/2000/svg">
<g clip-path="url(#clip0_86_23973)">
<path d="M75.1029 19.4918V23.3498H65.3595V34.9025H77.0687V11.7671H80.9728V34.9025L77.0687 38.7637H65.3595L61.4543 34.9025V23.3498L65.3595 19.4918H75.1029Z" fill="#262424"/>
<path d="M99.9852 19.4917L103.891 23.3497V27.208L99.9852 31.0699H90.1308V27.208H99.9852V23.3497H88.2799V34.9024H101.926V38.7636H88.2799L84.3748 34.9024V23.3497L88.2799 19.4917H99.9852Z" fill="#262424"/>
<path d="M122.906 19.4917L126.809 23.3497V34.9024L122.906 38.7636H113.162V34.9024H122.906V23.3497H111.198V46.4562H107.292V23.3497L111.198 19.4917H122.906Z" fill="#262424"/>
<path d="M149.727 23.3497H134.115V27.208H145.824L149.727 31.0699V34.9024L145.824 38.7636H130.209V34.9024H145.824V31.0699H134.115L130.209 27.208V23.3497L134.115 19.4917H149.727V23.3497Z" fill="#262424"/>
<path d="M54.747 25.9388C54.8056 21.5789 52.3961 16.2744 52.3961 16.2744C52.3961 16.2744 51.7789 14.7338 50.9999 13.9201C50.2208 13.1064 48.5593 12.2033 48.5593 12.2033C48.5593 12.2033 48.748 11.8507 48.748 11.0952C48.748 10.3397 47.9185 9.49077 47.708 9.27486C47.4974 9.05896 44.4313 5.7088 40.6545 3.77579C36.8784 1.84278 33.0575 0.491211 27.5469 0.491211H27.5226C22.012 0.491211 18.1915 1.84278 14.4147 3.77579C10.6379 5.7088 7.57279 9.05896 7.36189 9.27486C7.15099 9.49077 6.3215 10.3397 6.3215 11.0952C6.3215 11.8507 6.51089 12.2033 6.51089 12.2033C6.51089 12.2033 4.84908 13.1064 4.07037 13.9201C3.29166 14.7338 2.67448 16.2744 2.67448 16.2744C2.67448 16.2744 0.263942 21.5789 0.322839 25.9388C0.322839 25.9388 0.259005 26.7578 1.65595 28.1644C1.65595 28.1644 0.335536 29.4452 0.487891 31.1034C0.487891 31.1034 0.741818 33.7151 1.80866 36.5288C2.87515 39.3415 3.86582 41.0251 4.44985 41.8542C5.03388 42.6833 7.06564 44.0143 8.1071 44.3659C8.1071 44.3415 7.37071 45.8988 8.36137 47.1541C8.36137 47.1541 15.2692 54.6647 27.511 54.8656H27.5589C39.8003 54.6647 46.7085 47.1541 46.7085 47.1541C47.6992 45.8985 46.9628 44.3415 46.9628 44.3659C48.0042 44.0143 50.0356 42.6833 50.6197 41.8542C51.2044 41.0251 52.1944 39.3419 53.2612 36.5288C54.3274 33.7155 54.5816 31.1034 54.5816 31.1034C54.734 29.4452 53.4136 28.1644 53.4136 28.1644C54.8105 26.7578 54.747 25.9388 54.747 25.9388ZM4.47701 14.5905C5.28111 13.6466 6.88895 12.8775 6.88895 12.8775C6.88895 12.8775 8.76871 15.5772 17.0517 16.9574C23.4548 17.9459 27.5081 17.8151 27.5081 17.8151H27.5296C27.5296 17.8151 31.5829 17.9459 37.9861 16.9574C46.2691 15.5772 48.1488 12.8775 48.1488 12.8775C48.1488 12.8775 49.7574 13.6466 50.5611 14.5905C51.3649 15.5343 51.7602 16.8967 51.7602 16.8967C51.7602 16.8967 50.6602 20.3002 42.4358 21.957C34.2118 23.6137 27.5445 23.4972 27.5445 23.4972H27.4933C27.4933 23.4972 20.826 23.6137 12.6016 21.957C4.3772 20.3002 3.27756 16.8967 3.27756 16.8967C3.27756 16.8967 3.6729 15.5343 4.47701 14.5905ZM46.1375 46.5765C45.3831 47.5092 43.9058 48.6592 43.4187 48.9079C42.9317 49.1566 40.2291 50.3996 34.7598 51.0372C30.5951 51.5967 27.5212 51.4411 27.5212 51.4411C27.5212 51.4411 24.4409 51.5964 20.2762 51.0372C14.8072 50.3996 12.1043 49.1562 11.6169 48.9079C11.1295 48.6595 9.65252 47.5092 8.89815 46.5765C8.14377 45.6439 8.88263 44.6805 8.88263 44.6805C8.88263 44.6805 12.3713 46.1723 18.0762 46.887C23.7811 47.6023 27.5057 47.4625 27.5057 47.4625H27.5311C27.5311 47.4625 31.2557 47.602 36.9602 46.887C42.6647 46.1723 46.1537 44.6805 46.1537 44.6805C46.1537 44.6805 46.8922 45.6439 46.1375 46.5765ZM53.7814 30.3528C53.8826 31.237 53.483 32.6722 53.483 32.6722C53.483 32.6722 53.4136 33.0859 53.0464 33.3869C52.6793 33.6879 48.839 37.0206 38.4693 38.2194C38.4693 38.2194 33.3178 38.9606 27.5275 38.917H27.4834C21.6936 38.9606 16.5417 38.2194 16.5417 38.2194C6.17232 37.0203 2.33203 33.6879 1.96454 33.3869C1.59706 33.0859 1.52758 32.6722 1.52758 32.6722C1.52758 32.6722 1.1287 31.237 1.23027 30.3528C1.33149 29.4693 2.2622 28.6604 2.2622 28.6604C2.2622 28.6604 3.99278 30.0884 8.50597 31.4836C13.0192 32.8787 21.4294 33.9907 27.4834 33.8595H27.5275C33.5819 33.9903 41.9918 32.8787 46.5054 31.4836C51.0185 30.0884 52.7488 28.6604 52.7488 28.6604C52.7488 28.6604 53.6802 29.4693 53.7814 30.3528Z" fill="#02AA4E"/>
</g>
<defs>
<clipPath id="clip0_86_23973">
<rect width="150" height="55" fill="white"/>
</clipPath>
</defs>
</svg>
