<svg width="50" height="50" viewBox="0 0 50 50" fill="none" xmlns="http://www.w3.org/2000/svg">
<circle cx="30" cy="30" r="20" fill="#F5F6FA"/>
<path d="M35.5386 12.1045H16.395V18.7716H35.5386C36.4227 18.7716 37.2706 18.4204 37.8957 17.7952C38.5209 17.17 38.8721 16.3221 38.8721 15.438C38.8721 14.5539 38.5209 13.706 37.8957 13.0809C37.2706 12.4557 36.4227 12.1045 35.5386 12.1045V12.1045Z" fill="#F5F6FA"/>
<path d="M11.1823 6.22656C9.61506 6.22656 8.11198 6.84916 7.00376 7.95738C5.89554 9.0656 5.27295 10.5687 5.27295 12.1359V29.6673H17.092V12.1359C17.0919 10.5686 16.4693 9.06557 15.361 7.95736C14.2527 6.84914 12.7496 6.22656 11.1823 6.22656V6.22656Z" fill="#D1D5DA"/>
<path d="M18.3647 28.7732H4.00012C3.46966 28.7732 2.96092 28.9839 2.58582 29.359C2.21073 29.7341 2 30.2429 2 30.7733V33.7735H20.3648V30.7733C20.3648 30.2429 20.1541 29.7341 19.779 29.359C19.4039 28.9839 18.8951 28.7732 18.3647 28.7732V28.7732Z" fill="#777A90"/>
<path d="M18.1738 18.7716H23.3975L25.4043 12.1045H20.1806L18.1738 18.7716Z" fill="#009A44"/>
<path d="M27.448 18.7716H32.6717L34.6751 12.1045H29.4548L27.448 18.7716Z" fill="#009A44"/>
<path d="M12.5157 13.5439H9.8489C8.92837 13.5439 8.18213 14.2902 8.18213 15.2107V22.3325C8.18213 23.253 8.92837 23.9993 9.8489 23.9993H12.5157C13.4363 23.9993 14.1825 23.253 14.1825 22.3325V15.2107C14.1825 14.2902 13.4363 13.5439 12.5157 13.5439Z" fill="white"/>
</svg>
