<svg width="50" height="50" viewBox="0 0 50 50" fill="none" xmlns="http://www.w3.org/2000/svg">
<circle cx="30" cy="30" r="20" fill="#F5F6FA"/>
<path d="M19.9999 37.8125C36.9252 33.0528 34.2142 23.6772 32.1399 17.5728C29.9127 11.0178 32.9089 6.46031 32.9089 6.46031C23.4061 5.86656 19.9999 2.1875 19.9999 2.1875C19.9999 2.1875 16.5936 5.86656 7.09082 6.46031C7.09082 6.46031 10.0871 11.0178 7.85988 17.5728C5.78551 23.6772 3.07457 33.0528 19.9999 37.8125Z" fill="#F5F6FA"/>
<path d="M11.4014 9.10348C12.0894 12.2546 11.8876 15.5351 10.8186 18.5782C9.68387 21.9169 8.70418 25.4197 10.232 28.3219C11.5936 30.9063 14.8764 33.0019 19.9998 34.5572C25.1248 33.0019 28.4061 30.9063 29.7676 28.3219C31.2954 25.4197 30.3158 21.9157 29.1811 18.5782C28.1119 15.5351 27.9101 12.2546 28.5983 9.10348C24.502 8.39285 21.7282 7.13441 19.9998 6.0791C18.2714 7.13441 15.4976 8.39285 11.4014 9.10348V9.10348Z" fill="#D1D5DA"/>
<path d="M19.9999 26.8811C23.6246 26.8811 26.563 23.9427 26.563 20.318C26.563 16.6933 23.6246 13.7549 19.9999 13.7549C16.3752 13.7549 13.4368 16.6933 13.4368 20.318C13.4368 23.9427 16.3752 26.8811 19.9999 26.8811Z" fill="#F5F6FA"/>
<path d="M24.093 18.5613L22.7099 17.1782L19.1949 20.6932L17.2899 18.7882L15.9067 20.1713L19.1933 23.4579L19.1949 23.4563L19.1964 23.4579L24.093 18.5613Z" fill="#009A44"/>
</svg>
