<svg width="50" height="50" viewBox="0 0 50 50" fill="none" xmlns="http://www.w3.org/2000/svg">
<circle cx="30" cy="30" r="20" fill="#F5F6FA"/>
<path d="M27.1875 27.6V23.025H24.2309C23.9916 22.0211 23.5933 21.062 23.0509 20.1841L25.1447 18.0903L21.9088 14.8559L19.815 16.9497C18.9374 16.4071 17.9786 16.0084 16.975 15.7687V12.8125H12.3997V15.7728C11.397 16.0127 10.4388 16.4102 9.56063 16.9503L7.46687 14.8566L4.23094 18.0912L6.32469 20.185C5.78459 21.0632 5.38726 22.0216 5.1475 23.0244H2.1875V27.6H5.14406C5.38317 28.6038 5.78155 29.5628 6.32406 30.4406L4.23031 32.5344L7.46562 35.7697L9.55937 33.6759C10.4372 34.2183 11.3962 34.6167 12.4 34.8559V37.8125H16.975V34.8519C17.9778 34.612 18.9361 34.2146 19.8144 33.6744L21.9081 35.7681L25.1434 32.5328L23.0497 30.4391C23.59 29.5609 23.9874 28.6025 24.2272 27.5997L27.1875 27.6ZM14.6875 28.3778C14.0812 28.3779 13.4884 28.1981 12.9842 27.8613C12.48 27.5245 12.087 27.0457 11.855 26.4855C11.6229 25.9253 11.5622 25.3089 11.6805 24.7142C11.7987 24.1195 12.0907 23.5732 12.5195 23.1445C12.9482 22.7157 13.4945 22.4237 14.0892 22.3055C14.6839 22.1872 15.3003 22.2479 15.8605 22.48C16.4207 22.712 16.8995 23.105 17.2363 23.6092C17.5731 24.1134 17.7529 24.7062 17.7528 25.3125C17.7527 26.1254 17.4298 26.9051 16.8549 27.4799C16.2801 28.0548 15.5004 28.3777 14.6875 28.3778Z" fill="#009A44"/>
<path d="M37.8125 10.7122V8.07469H36.1081C35.9702 7.49605 35.7405 6.94322 35.4278 6.43719L36.6344 5.23062L34.7694 3.36563L33.5625 4.57219C33.0565 4.25949 32.5036 4.02981 31.925 3.89188V2.1875H29.2875V3.89406C28.7095 4.03246 28.157 4.26155 27.6506 4.57281L26.4438 3.36563L24.5788 5.23062L25.7859 6.4375C25.4747 6.94386 25.2456 7.49633 25.1072 8.07437H23.4006V10.7119H25.105C25.2429 11.2906 25.4726 11.8436 25.7853 12.3497L24.5788 13.5559L26.4438 15.4212L27.65 14.2147C28.1563 14.5271 28.7092 14.7568 29.2878 14.895V16.5991H31.9253V14.8928C32.5034 14.7544 33.0558 14.5253 33.5622 14.2141L34.7694 15.4216L36.6344 13.5562L35.4272 12.3491C35.7385 11.8427 35.9675 11.2902 36.1059 10.7122H37.8125ZM30.6066 12.4591C30.0002 12.4591 29.4075 12.2794 28.9033 11.9426C28.3991 11.6057 28.0062 11.127 27.7741 10.5668C27.542 10.0067 27.4812 9.39025 27.5995 8.79555C27.7178 8.20086 28.0097 7.65459 28.4384 7.22582C28.8671 6.79706 29.4134 6.50505 30.0081 6.38674C30.6028 6.26843 31.2192 6.32912 31.7793 6.56114C32.3395 6.79316 32.8183 7.18609 33.1552 7.69023C33.4921 8.19438 33.6719 8.7871 33.6719 9.39344C33.6719 10.2064 33.3489 10.9861 32.7741 11.5611C32.1992 12.136 31.4196 12.459 30.6066 12.4591Z" fill="#D1D5DA"/>
<path d="M21.8933 26.6311V23.9936H20.1889C20.051 23.4149 19.8213 22.862 19.5086 22.3558L20.7152 21.1493L18.8502 19.2846L17.6436 20.4908C17.1375 20.1784 16.5847 19.9487 16.0061 19.8105V18.1064H13.3686V19.8124C12.7906 19.9508 12.2381 20.1799 11.7318 20.4911L10.5246 19.2839L8.65957 21.1486L9.86676 22.3561C9.55521 22.8626 9.32591 23.4153 9.18738 23.9936H7.48145V26.6311H9.18738C9.32532 27.2098 9.555 27.7626 9.86769 28.2686L8.66113 29.4752L10.5261 31.3402L11.7327 30.1336C12.2387 30.4464 12.7915 30.6761 13.3702 30.8139V32.5183H16.0077V30.8124C16.5858 30.6742 17.1383 30.4452 17.6446 30.1339L18.8518 31.3411L20.7167 29.4761L19.5096 28.2689C19.8206 27.7622 20.0494 27.2094 20.1874 26.6311H21.8933ZM14.6874 28.3777C14.081 28.3778 13.4883 28.198 12.9841 27.8612C12.4799 27.5243 12.0869 27.0456 11.8549 26.4854C11.6228 25.9252 11.5621 25.3088 11.6803 24.7141C11.7986 24.1194 12.0906 23.5731 12.5193 23.1443C12.9481 22.7156 13.4944 22.4236 14.0891 22.3053C14.6838 22.1871 15.3002 22.2478 15.8604 22.4799C16.4206 22.7119 16.8993 23.1049 17.2362 23.6091C17.573 24.1133 17.7528 24.706 17.7527 25.3124C17.7526 26.1253 17.4296 26.905 16.8548 27.4798C16.28 28.0546 15.5003 28.3776 14.6874 28.3777Z" fill="#D1D5DA"/>
</svg>
