<svg width="20" height="21" viewBox="0 0 20 21" fill="none" xmlns="http://www.w3.org/2000/svg">
<rect y="0.5" width="20" height="20" rx="10" fill="#EBFAE8"/>
<path d="M6.66675 7.16675C6.66675 6.50371 6.97404 5.86782 7.52102 5.39898C8.068 4.93014 8.80987 4.66675 9.58341 4.66675H10.4167C11.1903 4.66675 11.9322 4.93014 12.4791 5.39898C13.0261 5.86782 13.3334 6.50371 13.3334 7.16675C13.3641 7.70779 13.2182 8.24416 12.9176 8.69506C12.617 9.14596 12.178 9.48698 11.6667 9.66675C11.1555 9.90644 10.7165 10.3611 10.4159 10.9623C10.1153 11.5635 9.9694 12.2787 10.0001 13.0001" stroke="#009A44" stroke-width="2" stroke-linecap="round" stroke-linejoin="round"/>
<path d="M10 16.3333V16.3416" stroke="#009A44" stroke-width="2" stroke-linecap="round" stroke-linejoin="round"/>
</svg>
