<svg width="160" height="160" viewBox="0 0 160 160" fill="none" xmlns="http://www.w3.org/2000/svg">
<g filter="url(#filter0_d_306_21717)">
<circle cx="80" cy="60" r="50" fill="#FF9436"/>
<circle cx="80" cy="60" r="47.5" stroke="white" stroke-width="5"/>
</g>
<path d="M56.8245 73.9739C56.7085 74.0049 56.6016 73.9922 56.5036 73.9356C56.4022 73.8662 56.3359 73.7735 56.3049 73.6576C56.2876 73.5932 56.285 73.5318 56.2969 73.4734L58.0899 62.3917L52.3523 63.9291C52.2106 63.9671 52.0762 63.9548 51.949 63.8922C51.8312 63.8133 51.7534 63.7031 51.7154 63.5614L51.1719 61.533C51.1339 61.3913 51.148 61.2633 51.214 61.149C51.2894 61.0184 51.3979 60.9341 51.5396 60.8961L60.6773 58.4477C60.8189 58.4097 60.9486 58.4302 61.0664 58.509C61.1936 58.5716 61.2762 58.6737 61.3141 58.8154L61.7955 60.612C61.8576 60.8438 61.8789 61.0521 61.8594 61.2367C61.8399 61.4214 61.8271 61.5284 61.8211 61.5576L60.023 72.6199C59.9642 72.967 59.7737 73.1836 59.4518 73.2699L56.8245 73.9739ZM71.9273 70.1341C70.678 70.4689 69.5719 70.5651 68.609 70.4228C67.6425 70.2677 66.8605 69.9251 66.263 69.395C65.6783 68.8615 65.279 68.1955 65.065 67.397C64.8856 66.7273 64.8908 66.0771 65.0807 65.4464C65.2801 64.7995 65.617 64.2537 66.0914 63.8091C65.0182 63.4616 64.3229 62.6955 64.0054 61.5106C63.6983 60.3644 63.886 59.3133 64.5685 58.3575C65.2639 57.3981 66.4745 56.6872 68.2003 56.2248C69.9132 55.7658 71.2977 55.7814 72.3539 56.2714C73.4195 56.7451 74.1058 57.555 74.4129 58.7012C74.727 59.8732 74.5289 60.8857 73.8188 61.7385C74.458 61.8571 75.0191 62.1485 75.5024 62.6125C75.9985 63.0732 76.3397 63.6512 76.5261 64.3467C76.7401 65.1452 76.7208 65.9233 76.4683 66.6812C76.2124 67.4261 75.7048 68.1074 74.9454 68.725C74.1826 69.3297 73.1766 69.7994 71.9273 70.1341ZM69.6859 61.7692C70.2234 61.6114 70.6298 61.3507 70.905 60.987C71.1768 60.6105 71.2558 60.2098 71.1419 59.7848C71.0246 59.3469 70.7558 59.0393 70.3356 58.862C69.912 58.6718 69.4297 58.6492 68.8888 58.7942C68.335 58.9426 67.9222 59.205 67.6504 59.5815C67.388 59.9417 67.3154 60.3407 67.4328 60.7786C67.5501 61.2165 67.8142 61.5323 68.2249 61.7259C68.6451 61.9032 69.1321 61.9176 69.6859 61.7692ZM71.244 67.5841C71.8493 67.4219 72.3038 67.1345 72.6073 66.7219C72.9237 66.3058 73.0129 65.8402 72.8749 65.325C72.7369 64.8099 72.4268 64.4512 71.9447 64.2491C71.4755 64.0435 70.9383 64.0218 70.333 64.184C69.7277 64.3462 69.2668 64.6354 68.9504 65.0514C68.6339 65.4675 68.5447 65.9331 68.6828 66.4483C68.8208 66.9635 69.1309 67.3221 69.6129 67.5242C70.095 67.7263 70.6387 67.7463 71.244 67.5841ZM79.7547 69.3827C79.6388 69.4137 79.5301 69.3945 79.4287 69.3251C79.3436 69.2651 79.2919 69.1754 79.2737 69.056L78.8322 65.0125C78.8096 64.8253 78.839 64.6518 78.9204 64.4919C78.9984 64.3192 79.1468 64.2035 79.3658 64.1448L81.7033 63.5185C81.8063 63.4909 81.9069 63.5054 82.0048 63.5619C82.1028 63.6185 82.1656 63.6983 82.1932 63.8013C82.2139 63.8786 82.22 63.9529 82.2115 64.0242L81.7348 68.2723C81.6897 68.6709 81.4998 68.9151 81.1649 69.0048L79.7547 69.3827ZM90.1114 65.2824C88.9394 65.5965 87.8783 65.6806 86.9282 65.5349C85.991 65.3857 85.2206 65.0607 84.6171 64.5598C84.0265 64.0555 83.6199 63.4398 83.3974 62.7126C83.3664 62.5967 83.3791 62.4897 83.4357 62.3917C83.4923 62.2938 83.5785 62.2292 83.6944 62.1982L86.4183 61.4683C86.7274 61.3855 86.9727 61.4509 87.1542 61.6645C87.4484 62.0412 87.7695 62.2865 88.1175 62.4003C88.4783 62.5107 88.8841 62.5055 89.3349 62.3847C89.8887 62.2363 90.301 61.9463 90.5719 61.5149C90.8557 61.0799 90.9165 60.5598 90.7543 59.9545C90.6128 59.4265 90.3152 59.0369 89.8614 58.7858C89.4076 58.5347 88.8974 58.485 88.3307 58.6369C88.0087 58.7231 87.7632 58.8372 87.5942 58.9792C87.4217 59.1082 87.2643 59.2677 87.1219 59.4577C86.9702 59.664 86.8234 59.7861 86.6818 59.8241L83.9965 60.5436C83.8806 60.5747 83.7672 60.5636 83.6563 60.5105C83.5549 60.4411 83.4887 60.3484 83.4576 60.2325L82.3555 53.2602C82.32 53.0764 82.3465 52.9175 82.4348 52.7834C82.536 52.6459 82.6703 52.5546 82.8377 52.5098L90.7003 50.403C90.842 50.365 90.97 50.3791 91.0843 50.4451C91.1986 50.5111 91.2748 50.6149 91.3127 50.7566L91.8303 52.6884C91.8649 52.8172 91.8508 52.9452 91.7883 53.0724C91.7223 53.1867 91.6185 53.2628 91.4768 53.3008L85.8551 54.8071L86.26 57.2454C86.5104 56.9436 86.815 56.6895 87.1738 56.4829C87.5291 56.2635 88.0158 56.0709 88.634 55.9053C89.4583 55.6844 90.2811 55.6641 91.1024 55.8444C91.9202 56.0117 92.6314 56.3733 93.2358 56.9291C93.8532 57.4815 94.2774 58.1892 94.5086 59.052C94.7502 59.9536 94.7422 60.8253 94.4847 61.6674C94.2238 62.4965 93.717 63.2327 92.9646 63.8761C92.2215 64.5031 91.2705 64.9719 90.1114 65.2824ZM98.2916 55.678C97.4158 55.9126 96.6535 55.8753 96.0047 55.5661C95.3559 55.2568 94.9022 54.7227 94.6436 53.9637C94.5143 53.5843 94.429 53.3173 94.3876 53.1627C94.3427 52.9953 94.2642 52.6505 94.1519 52.1285C93.98 51.3325 94.0895 50.6337 94.4805 50.032C94.8714 49.4303 95.5241 49.007 96.4385 48.7619C97.3529 48.5169 98.1298 48.5572 98.7692 48.8828C99.4086 49.2084 99.8593 49.7572 100.121 50.529C100.285 51.0372 100.389 51.3751 100.434 51.5425C100.476 51.697 100.535 51.971 100.613 52.3642C100.769 53.1508 100.636 53.8419 100.216 54.4376C99.8089 55.0299 99.1674 55.4433 98.2916 55.678ZM98.5617 62.7904C98.4329 62.8249 98.3148 62.8221 98.2074 62.7818C98.1094 62.7253 98.0449 62.639 98.0138 62.5231C97.9931 62.4458 97.9999 62.3681 98.0341 62.2899L104.213 47.1757C104.281 47.0193 104.354 46.9033 104.43 46.8276C104.503 46.7391 104.623 46.6724 104.791 46.6275L106.24 46.2393C106.368 46.2048 106.482 46.2158 106.58 46.2724C106.687 46.3126 106.756 46.3907 106.787 46.5066C106.808 46.5839 106.801 46.6616 106.767 46.7398L100.588 61.854C100.52 62.0104 100.449 62.1329 100.376 62.2214C100.3 62.2971 100.178 62.3573 100.011 62.4022L98.5617 62.7904ZM97.8309 53.9586C98.1143 53.8827 98.2979 53.7438 98.3818 53.5418C98.4752 53.3236 98.4938 53.0839 98.4376 52.8229C98.3599 52.4296 98.3003 52.1557 98.2589 52.0012C98.214 51.8337 98.1304 51.5732 98.008 51.2195C97.9227 50.9525 97.7867 50.7542 97.6002 50.6247C97.4231 50.4789 97.1929 50.444 96.9095 50.5199C96.3944 50.658 96.1938 51.043 96.308 51.675C96.3434 51.8587 96.4077 52.1245 96.5009 52.4722C96.5941 52.8199 96.673 53.0887 96.7376 53.2784C96.8358 53.542 96.9718 53.7402 97.1454 53.8731C97.332 54.0026 97.5605 54.0311 97.8309 53.9586ZM108.401 60.2574C107.526 60.4921 106.755 60.4501 106.09 60.1314C105.438 59.8092 104.982 59.2687 104.724 58.5097C104.594 58.1303 104.509 57.8632 104.468 57.7087C104.426 57.5541 104.349 57.2158 104.237 56.6938C104.075 55.8815 104.189 55.1745 104.58 54.5728C104.971 53.9711 105.623 53.5478 106.538 53.3028C107.452 53.0577 108.229 53.098 108.869 53.4236C109.508 53.7493 109.954 54.3061 110.207 55.0943C110.37 55.6025 110.473 55.9339 110.514 56.0885C110.556 56.243 110.615 56.5169 110.693 56.9102C110.849 57.6968 110.725 58.3926 110.321 58.9977C109.917 59.6029 109.277 60.0228 108.401 60.2574ZM107.935 58.5188C108.206 58.4463 108.383 58.3091 108.467 58.1071C108.56 57.8889 108.584 57.6411 108.537 57.3637C108.459 56.9704 108.4 56.6965 108.358 56.542C108.313 56.3746 108.23 56.114 108.107 55.7603C108.009 55.4967 107.867 55.3002 107.68 55.1707C107.507 55.0378 107.285 55.0076 107.014 55.0801C106.731 55.156 106.542 55.3031 106.449 55.5213C106.365 55.7233 106.351 55.9548 106.407 56.2158C106.443 56.3996 106.507 56.6653 106.6 57.013C106.693 57.3608 106.772 57.6295 106.837 57.8192C106.922 58.0862 107.054 58.2926 107.231 58.4384C107.417 58.5679 107.652 58.5947 107.935 58.5188Z" fill="white"/>
<defs>
<filter id="filter0_d_306_21717" x="0" y="0" width="160" height="160" filterUnits="userSpaceOnUse" color-interpolation-filters="sRGB">
<feFlood flood-opacity="0" result="BackgroundImageFix"/>
<feColorMatrix in="SourceAlpha" type="matrix" values="0 0 0 0 0 0 0 0 0 0 0 0 0 0 0 0 0 0 127 0" result="hardAlpha"/>
<feMorphology radius="10" operator="erode" in="SourceAlpha" result="effect1_dropShadow_306_21717"/>
<feOffset dy="20"/>
<feGaussianBlur stdDeviation="20"/>
<feComposite in2="hardAlpha" operator="out"/>
<feColorMatrix type="matrix" values="0 0 0 0 0.466667 0 0 0 0 0.478431 0 0 0 0 0.564706 0 0 0 0.3 0"/>
<feBlend mode="normal" in2="BackgroundImageFix" result="effect1_dropShadow_306_21717"/>
<feBlend mode="normal" in="SourceGraphic" in2="effect1_dropShadow_306_21717" result="shape"/>
</filter>
</defs>
</svg>
