<svg width="36" height="36" viewBox="0 0 36 36" fill="none" xmlns="http://www.w3.org/2000/svg">
<path d="M24.9125 5.65625V35.9688H0.03125V0.03125H19.2875L24.9125 5.65625Z" fill="#F5F6FA"/>
<path d="M7.84375 2.45312H5.96875C5.82371 2.45312 5.68461 2.39551 5.58205 2.29295C5.47949 2.19039 5.42188 2.05129 5.42188 1.90625C5.42188 1.76121 5.47949 1.62211 5.58205 1.51955C5.68461 1.41699 5.82371 1.35938 5.96875 1.35938H7.84375C7.98879 1.35938 8.12789 1.41699 8.23045 1.51955C8.33301 1.62211 8.39062 1.76121 8.39062 1.90625C8.39062 2.05129 8.33301 2.19039 8.23045 2.29295C8.12789 2.39551 7.98879 2.45312 7.84375 2.45312V2.45312Z" fill="#D1D5DA"/>
<path d="M24.9126 5.65625H19.2876V0.03125L24.9126 5.65625Z" fill="#D1D5DA"/>
<path d="M21.925 10.7869H3.0188C2.87376 10.7869 2.73466 10.7292 2.6321 10.6267C2.52954 10.5241 2.47192 10.385 2.47192 10.24C2.47192 10.0949 2.52954 9.95585 2.6321 9.85329C2.73466 9.75073 2.87376 9.69312 3.0188 9.69312H21.925C22.0701 9.69312 22.2092 9.75073 22.3117 9.85329C22.4143 9.95585 22.4719 10.0949 22.4719 10.24C22.4719 10.385 22.4143 10.5241 22.3117 10.6267C22.2092 10.7292 22.0701 10.7869 21.925 10.7869V10.7869Z" fill="#D1D5DA"/>
<path d="M21.925 13.2875H3.0188C2.87376 13.2875 2.73466 13.2299 2.6321 13.1273C2.52954 13.0247 2.47192 12.8856 2.47192 12.7406C2.47192 12.5956 2.52954 12.4565 2.6321 12.3539C2.73466 12.2513 2.87376 12.1937 3.0188 12.1937H21.925C22.0701 12.1937 22.2092 12.2513 22.3117 12.3539C22.4143 12.4565 22.4719 12.5956 22.4719 12.7406C22.4719 12.8856 22.4143 13.0247 22.3117 13.1273C22.2092 13.2299 22.0701 13.2875 21.925 13.2875V13.2875Z" fill="#D1D5DA"/>
<path d="M20.0532 15.7875H3.0188C2.87376 15.7875 2.73466 15.7299 2.6321 15.6273C2.52954 15.5247 2.47192 15.3856 2.47192 15.2406C2.47192 15.0956 2.52954 14.9565 2.6321 14.8539C2.73466 14.7513 2.87376 14.6937 3.0188 14.6937H20.0532C20.1982 14.6937 20.3373 14.7513 20.4399 14.8539C20.5424 14.9565 20.6 15.0956 20.6 15.2406C20.6 15.3856 20.5424 15.5247 20.4399 15.6273C20.3373 15.7299 20.1982 15.7875 20.0532 15.7875V15.7875Z" fill="#D1D5DA"/>
<path d="M19.0719 18.2875H3.0188C2.87376 18.2875 2.73466 18.2299 2.6321 18.1273C2.52954 18.0247 2.47192 17.8856 2.47192 17.7406C2.47192 17.5956 2.52954 17.4565 2.6321 17.3539C2.73466 17.2513 2.87376 17.1937 3.0188 17.1937H19.0719C19.217 17.1937 19.3561 17.2513 19.4586 17.3539C19.5612 17.4565 19.6188 17.5956 19.6188 17.7406C19.6188 17.8856 19.5612 18.0247 19.4586 18.1273C19.3561 18.2299 19.217 18.2875 19.0719 18.2875Z" fill="#D1D5DA"/>
<path d="M19.0219 20.7906H3.0188C2.87376 20.7906 2.73466 20.733 2.6321 20.6305C2.52954 20.5279 2.47192 20.3888 2.47192 20.2438C2.47192 20.0987 2.52954 19.9596 2.6321 19.8571C2.73466 19.7545 2.87376 19.6969 3.0188 19.6969H19.0219C19.167 19.6969 19.3061 19.7545 19.4086 19.8571C19.5112 19.9596 19.5688 20.0987 19.5688 20.2438C19.5688 20.3888 19.5112 20.5279 19.4086 20.6305C19.3061 20.733 19.167 20.7906 19.0219 20.7906V20.7906Z" fill="#D1D5DA"/>
<path d="M19.8938 23.2906H3.0188C2.87376 23.2906 2.73466 23.233 2.6321 23.1305C2.52954 23.0279 2.47192 22.8888 2.47192 22.7438C2.47192 22.5987 2.52954 22.4596 2.6321 22.3571C2.73466 22.2545 2.87376 22.1969 3.0188 22.1969H19.8938C20.0388 22.1969 20.1779 22.2545 20.2805 22.3571C20.3831 22.4596 20.4407 22.5987 20.4407 22.7438C20.4407 22.8888 20.3831 23.0279 20.2805 23.1305C20.1779 23.233 20.0388 23.2906 19.8938 23.2906V23.2906Z" fill="#D1D5DA"/>
<path d="M21.925 25.7909H3.0188C2.87376 25.7909 2.73466 25.7333 2.6321 25.6307C2.52954 25.5282 2.47192 25.3891 2.47192 25.244C2.47192 25.099 2.52954 24.9599 2.6321 24.8573C2.73466 24.7548 2.87376 24.6971 3.0188 24.6971H21.925C22.0701 24.6971 22.2092 24.7548 22.3117 24.8573C22.4143 24.9599 22.4719 25.099 22.4719 25.244C22.4719 25.3891 22.4143 25.5282 22.3117 25.6307C22.2092 25.7333 22.0701 25.7909 21.925 25.7909V25.7909Z" fill="#D1D5DA"/>
<path d="M21.925 28.2915H3.0188C2.87376 28.2915 2.73466 28.2339 2.6321 28.1313C2.52954 28.0288 2.47192 27.8897 2.47192 27.7446C2.47192 27.5996 2.52954 27.4605 2.6321 27.3579C2.73466 27.2554 2.87376 27.1978 3.0188 27.1978H21.925C22.0701 27.1978 22.2092 27.2554 22.3117 27.3579C22.4143 27.4605 22.4719 27.5996 22.4719 27.7446C22.4719 27.8897 22.4143 28.0288 22.3117 28.1313C22.2092 28.2339 22.0701 28.2915 21.925 28.2915V28.2915Z" fill="#D1D5DA"/>
<path d="M21.925 30.7922H3.0188C2.87376 30.7922 2.73466 30.7346 2.6321 30.6321C2.52954 30.5295 2.47192 30.3904 2.47192 30.2454C2.47192 30.1003 2.52954 29.9612 2.6321 29.8587C2.73466 29.7561 2.87376 29.6985 3.0188 29.6985H21.925C22.0701 29.6985 22.2092 29.7561 22.3117 29.8587C22.4143 29.9612 22.4719 30.1003 22.4719 30.2454C22.4719 30.3904 22.4143 30.5295 22.3117 30.6321C22.2092 30.7346 22.0701 30.7922 21.925 30.7922V30.7922Z" fill="#D1D5DA"/>
<path d="M21.925 33.2869H3.0188C2.87376 33.2869 2.73466 33.2292 2.6321 33.1267C2.52954 33.0241 2.47192 32.885 2.47192 32.74C2.47192 32.5949 2.52954 32.4559 2.6321 32.3533C2.73466 32.2507 2.87376 32.1931 3.0188 32.1931H21.925C22.0701 32.1931 22.2092 32.2507 22.3117 32.3533C22.4143 32.4559 22.4719 32.5949 22.4719 32.74C22.4719 32.885 22.4143 33.0241 22.3117 33.1267C22.2092 33.2292 22.0701 33.2869 21.925 33.2869V33.2869Z" fill="#D1D5DA"/>
<path d="M30.8915 32.2957L31.47 30.5151L29.6893 29.9369L30.2675 28.1563L28.484 27.5772L25.4622 21.6488L27.1328 20.7972L28.8031 19.9457L35.9687 34.0029L34.8662 35.9688L32.6278 35.706L32.0931 34.6569L32.6722 32.8738L30.8915 32.2957Z" fill="#313647"/>
<path d="M26.2805 24.5944C29.3008 24.5944 31.7493 22.1459 31.7493 19.1256C31.7493 16.1053 29.3008 13.6569 26.2805 13.6569C23.2602 13.6569 20.8118 16.1053 20.8118 19.1256C20.8118 22.1459 23.2602 24.5944 26.2805 24.5944Z" fill="#009A44"/>
<path d="M25.4528 18.9075C26.2293 18.9075 26.8587 18.278 26.8587 17.5015C26.8587 16.725 26.2293 16.0956 25.4528 16.0956C24.6763 16.0956 24.0469 16.725 24.0469 17.5015C24.0469 18.278 24.6763 18.9075 25.4528 18.9075Z" fill="#313647"/>
</svg>
