<svg width="40" height="40" viewBox="0 0 40 40" fill="none" xmlns="http://www.w3.org/2000/svg">
<g clip-path="url(#clip0_307_21766)">
<path d="M32.909 18.9129L33.3857 23.1827L29.446 24.9011L27.7276 28.8408L26.5017 28.7047L23.4578 28.3641L20 30.9103L16.5422 28.3641L13.4984 28.7047L12.2724 28.8408L10.554 24.9011L6.61433 23.1827L7.09105 18.9129L4.54492 15.4552L7.09105 11.9974L6.61433 7.72752L10.554 6.00912L12.2724 2.0694L16.5422 2.54613L20 0L23.4578 2.54613L27.7276 2.0694L29.446 6.00912L33.3857 7.72752L32.909 11.9974L35.4551 15.4552L32.909 18.9129Z" fill="#D1D5DA"/>
<path d="M19.9998 23.6428C24.5217 23.6428 28.1874 19.9771 28.1874 15.4552C28.1874 10.9333 24.5217 7.26758 19.9998 7.26758C15.478 7.26758 11.8123 10.9333 11.8123 15.4552C11.8123 19.9771 15.478 23.6428 19.9998 23.6428Z" fill="#009A44"/>
<path d="M26.5016 28.7046V39.9999L19.9999 36.7675L13.4983 39.9999V28.7046L16.5422 28.364L19.9999 30.9103L23.4577 28.364L26.5016 28.7046Z" fill="#777A90"/>
</g>
<defs>
<clipPath id="clip0_307_21766">
<rect width="40" height="40" fill="white"/>
</clipPath>
</defs>
</svg>
