<svg width="40" height="40" viewBox="0 0 40 40" fill="none" xmlns="http://www.w3.org/2000/svg">
<g clip-path="url(#clip0_86_19817)">
<path d="M35.3677 34.3752V40H4.63233V34.3752C4.62646 26.5014 11.0046 20.1137 18.8784 20.1078H18.8998H21.1003C28.9741 20.1019 35.3618 26.4801 35.3677 34.3539V34.3752Z" fill="#777A90"/>
<path d="M30.0911 10.0529C30.0736 15.6138 25.5586 20.1115 19.9976 20.1078C18.8575 20.1107 17.7255 19.9177 16.6508 19.5371C11.4181 17.67 8.68976 11.9145 10.5568 6.68182C12.4238 1.44913 18.1793 -1.27924 23.412 0.587762C27.4139 2.01569 30.0871 5.80398 30.0911 10.0529Z" fill="#D1D5DA"/>
<path d="M10.2231 7.60379C12.3092 8.38357 14.5205 8.77442 16.7475 8.75683C21.9225 8.75683 26.3367 6.79712 28.0729 4.04085C24.731 -0.417521 18.4075 -1.32266 13.9492 2.01927C12.1061 3.40089 10.7912 5.37152 10.2231 7.60379Z" fill="#777A90"/>
<path d="M29.124 32.2941C28.6569 32.2938 28.2779 32.6723 28.2776 33.1395V33.1405V39.9999H29.9703V33.1405C29.9706 32.6733 29.5921 32.2944 29.1249 32.2941C29.1247 32.2941 29.1243 32.2941 29.124 32.2941ZM11.1906 32.2941C10.7235 32.2938 10.3445 32.6723 10.3442 33.1395V33.1405V39.9999H12.0369V33.1405C12.0372 32.6733 11.6587 32.2944 11.1916 32.2941C11.1912 32.2941 11.1909 32.2941 11.1906 32.2941Z" fill="#D1D5DA"/>
<path d="M23.3929 20.2916C23.298 22.1654 21.702 23.6073 19.8282 23.5124C18.0873 23.4241 16.6957 22.0325 16.6074 20.2916C17.3655 20.1691 18.132 20.1076 18.8998 20.1078H21.1004C21.8683 20.1074 22.635 20.1688 23.3929 20.2916Z" fill="#009A44"/>
<path d="M16.8831 31.8317C16.8831 35.3589 18.7591 36.2841 20.138 36.2841C21.5168 36.2841 23.3928 35.359 23.3928 31.8317C23.3928 28.3045 21.9356 23.5131 20.138 23.5131C18.3403 23.5131 16.8831 28.3045 16.8831 31.8317Z" fill="#009A44"/>
</g>
<defs>
<clipPath id="clip0_86_19817">
<rect width="40" height="40" fill="white"/>
</clipPath>
</defs>
</svg>
