<svg width="60" height="61" viewBox="0 0 60 61" fill="none" xmlns="http://www.w3.org/2000/svg">
<path d="M16.3396 19.3909L19.4161 16.3187L29.1505 26.0669L26.074 29.139L16.3396 19.3909Z" fill="#D1D5DA"/>
<path d="M48.6423 23.2231C47.4938 24.3706 46.0371 25.1603 44.4488 25.4965C42.8605 25.8326 41.2087 25.7007 39.6939 25.1168L33.9423 30.8731L30.8673 33.9434L25.1157 39.695C25.6906 41.1834 25.8287 42.8051 25.5137 44.3693C25.1987 45.9336 24.4438 47.3754 23.3376 48.5254C22.2315 49.6754 20.82 50.4857 19.2692 50.8612C17.7184 51.2366 16.0926 51.1616 14.5829 50.645L19.4532 45.7747L18.3517 41.6497L14.2267 40.5481L9.35635 45.4184C8.83968 43.9087 8.76467 42.2829 9.14014 40.7321C9.51561 39.1813 10.3259 37.7698 11.4759 36.6637C12.6259 35.5575 14.0677 34.8026 15.632 34.4876C17.1962 34.1726 18.8179 34.3107 20.3063 34.8856L26.0579 29.134L29.1329 26.0637L34.8845 20.3075C34.3096 18.819 34.1715 17.1973 34.4865 15.6331C34.8015 14.0689 35.5564 12.627 36.6626 11.477C37.7687 10.3271 39.1802 9.51673 40.731 9.14126C42.2818 8.76579 43.9076 8.8408 45.4173 9.35747L40.547 14.2278L41.6485 18.3528L45.7735 19.4543L50.6439 14.584C51.1519 16.0671 51.2336 17.6629 50.8798 19.1901C50.526 20.7173 49.7508 22.1146 48.6423 23.2231V23.2231Z" fill="#009A44"/>
<path d="M17.8622 13.1539L13.1498 17.8662L8.90625 11.5967L11.5927 8.91028L17.8622 13.1539Z" fill="#D1D5DA"/>
<path d="M19.396 16.3273L16.3229 19.4004L13.1499 17.8662L17.8622 13.1539L19.396 16.3273Z" fill="#777A90"/>
<path d="M37.9341 30.2229L36.2611 28.5481L28.5469 36.2651L30.2203 37.9381C30.4324 38.1476 30.7189 38.2645 31.0171 38.2629C31.3152 38.2613 31.6005 38.1414 31.8103 37.9296C31.9494 37.789 32.1147 37.6772 32.297 37.6005C32.4793 37.5238 32.6749 37.4838 32.8726 37.4827C33.0704 37.4816 33.2664 37.5195 33.4495 37.5941C33.6327 37.6688 33.7993 37.7788 33.9398 37.9179C34.0789 38.0585 34.1889 38.2251 34.2635 38.4082C34.3381 38.5913 34.376 38.7873 34.3748 38.985C34.3737 39.1827 34.3336 39.3783 34.2569 39.5605C34.1802 39.7427 34.0683 39.908 33.9277 40.047L33.1308 40.8467L41.918 49.6371C42.9318 50.6645 44.3065 51.2556 45.7496 51.2847C47.1926 51.3138 48.59 50.7785 49.6444 49.7928C50.1664 49.2953 50.5841 48.6988 50.873 48.0382C51.1618 47.3775 51.3162 46.6658 51.3269 45.9448C51.3376 45.2239 51.2046 44.5079 50.9355 43.8389C50.6664 43.17 50.2667 42.5613 49.7597 42.0485L40.8422 33.1311L40.0453 33.9307C39.7644 34.2146 39.3823 34.3753 38.983 34.3775C38.5836 34.3797 38.1998 34.2232 37.9158 33.9425C37.635 33.6585 37.4785 33.2746 37.4807 32.8753C37.4829 32.4759 37.6436 32.0938 37.9275 31.8129C38.139 31.6029 38.2586 31.3174 38.2598 31.0193C38.261 30.7212 38.1439 30.4347 37.9341 30.2229V30.2229Z" fill="#777A90"/>
<path d="M45.1875 46.0137C45.0798 46.0138 44.9731 45.9927 44.8736 45.9514C44.7741 45.9101 44.6837 45.8496 44.6077 45.7732L37.5867 38.7509C37.4329 38.5971 37.3464 38.3884 37.3464 38.1708C37.3464 37.9533 37.4329 37.7446 37.5867 37.5908C37.7406 37.4369 37.9492 37.3505 38.1668 37.3505C38.3844 37.3505 38.593 37.4369 38.7469 37.5908L45.7697 44.6136C45.8845 44.7284 45.9626 44.8748 45.9941 45.0341C46.0257 45.1933 46.0092 45.3584 45.9469 45.5084C45.8845 45.6583 45.7791 45.7864 45.6439 45.8763C45.5087 45.9663 45.3499 46.0141 45.1875 46.0137V46.0137Z" fill="#009A44"/>
</svg>
