<svg width="60" height="60" viewBox="0 0 60 60" fill="none" xmlns="http://www.w3.org/2000/svg">
<path d="M27.7089 39.2522C27.2999 39.2522 26.9077 39.0897 26.6185 38.8005C26.3293 38.5113 26.1668 38.1191 26.1668 37.7101V32.9863L20.1203 29.9997L26.1668 27.0131V22.2893C26.1668 21.8804 26.3293 21.4881 26.6185 21.1989C26.9077 20.9097 27.2999 20.7473 27.7089 20.7473H44.9833V7.9276C44.9833 7.67446 44.9334 7.4238 44.8365 7.18994C44.7397 6.95607 44.5977 6.74357 44.4187 6.56458C44.2397 6.38559 44.0272 6.2436 43.7933 6.14673C43.5594 6.04986 43.3088 6 43.0557 6H18.1927C17.6815 6 17.1912 6.20309 16.8297 6.56458C16.4682 6.92607 16.2651 7.41637 16.2651 7.9276V52.0696C16.2651 52.5808 16.4682 53.0711 16.8297 53.4326C17.1912 53.7941 17.6815 53.9971 18.1927 53.9971H43.0557C43.5669 53.9971 44.0572 53.7941 44.4187 53.4326C44.7802 53.0711 44.9833 52.5808 44.9833 52.0696V39.2522H27.7089Z" fill="#D1D5DA"/>
<path d="M23.1309 6H38.1179V7.9276C38.1179 8.43883 37.9148 8.92912 37.5533 9.29061C37.1918 9.65211 36.7016 9.8552 36.1903 9.8552H25.0585C24.5472 9.8552 24.0569 9.65211 23.6954 9.29061C23.3339 8.92912 23.1309 8.43883 23.1309 7.9276V6V6Z" fill="#777A90"/>
<path d="M28.6768 47.0578H32.5706C32.9796 47.0578 33.3718 47.2203 33.661 47.5095C33.9502 47.7987 34.1127 48.1909 34.1127 48.5999C34.1127 49.0089 33.9502 49.4011 33.661 49.6903C33.3718 49.9795 32.9796 50.1419 32.5706 50.1419H28.6768C28.2679 50.1419 27.8756 49.9795 27.5864 49.6903C27.2972 49.4011 27.1348 49.0089 27.1348 48.5999C27.1348 48.1909 27.2972 47.7987 27.5864 47.5095C27.8756 47.2203 28.2679 47.0578 28.6768 47.0578V47.0578Z" fill="#777A90"/>
<path d="M26.1668 22.2894V27.0131L20.1204 29.9998L26.1668 32.9864V37.7102C26.1668 38.1191 26.3293 38.5114 26.6185 38.8006C26.9077 39.0898 27.2999 39.2522 27.7089 39.2522H49.2255C49.6345 39.2522 50.0268 39.0898 50.316 38.8006C50.6052 38.5114 50.7676 38.1191 50.7676 37.7102V22.2894C50.7676 21.8804 50.6052 21.4882 50.316 21.199C50.0268 20.9098 49.6345 20.7473 49.2255 20.7473H27.7089C27.2999 20.7473 26.9077 20.9098 26.6185 21.199C26.3293 21.4882 26.1668 21.8804 26.1668 22.2894Z" fill="#009A44"/>
<path d="M31.5038 31.4817C31.3092 31.4817 31.1165 31.4433 30.9367 31.3689C30.7569 31.2944 30.5936 31.1852 30.456 31.0476C30.3184 30.91 30.2093 30.7466 30.1349 30.5668C30.0605 30.387 30.0222 30.1943 30.0222 29.9997C30.0222 29.8051 30.0605 29.6124 30.1349 29.4326C30.2093 29.2529 30.3184 29.0895 30.456 28.9519C30.5936 28.8142 30.7569 28.7051 30.9367 28.6306C31.1165 28.5561 31.3092 28.5178 31.5038 28.5178C31.8968 28.5178 32.2737 28.6739 32.5516 28.9518C32.8296 29.2298 32.9857 29.6067 32.9857 29.9997C32.9857 30.3928 32.8296 30.7697 32.5516 31.0476C32.2737 31.3255 31.8968 31.4817 31.5038 31.4817V31.4817Z" fill="#313647"/>
<path d="M38.4673 31.4816C38.0743 31.4816 37.6973 31.3255 37.4194 31.0476C37.1415 30.7697 36.9854 30.3927 36.9854 29.9997C36.9854 29.6067 37.1415 29.2297 37.4194 28.9518C37.6973 28.6739 38.0743 28.5178 38.4673 28.5178C38.8603 28.5178 39.2373 28.6739 39.5152 28.9518C39.7931 29.2297 39.9492 29.6067 39.9492 29.9997C39.9492 30.3927 39.7931 30.7697 39.5152 31.0476C39.2373 31.3255 38.8603 31.4816 38.4673 31.4816V31.4816Z" fill="#313647"/>
<path d="M45.4308 31.4816C45.2362 31.4816 45.0435 31.4433 44.8637 31.3688C44.6839 31.2944 44.5206 31.1852 44.383 31.0476C44.2454 30.91 44.1363 30.7466 44.0619 30.5668C43.9875 30.387 43.9492 30.1943 43.9492 29.9997C43.9492 29.8051 43.9875 29.6124 44.0619 29.4326C44.1363 29.2528 44.2454 29.0895 44.383 28.9518C44.5206 28.8142 44.6839 28.7051 44.8637 28.6306C45.0435 28.5561 45.2362 28.5178 45.4308 28.5178C45.8238 28.5178 46.2007 28.6739 46.4787 28.9518C46.7566 29.2297 46.9127 29.6067 46.9127 29.9997C46.9127 30.3927 46.7566 30.7697 46.4787 31.0476C46.2007 31.3255 45.8238 31.4816 45.4308 31.4816V31.4816Z" fill="#313647"/>
</svg>
