<svg width="60" height="61" viewBox="0 0 60 61" fill="none" xmlns="http://www.w3.org/2000/svg">
<path d="M12.3985 44.7528C11.3592 44.9912 10.3937 45.4795 9.58587 46.1755C8.77802 46.8714 8.15215 47.754 7.76255 48.7465L4.8938 56.0544H55.1063L52.2422 48.7559C51.8506 47.7616 51.2225 46.8778 50.4122 46.181C49.6019 45.4843 48.634 44.9957 47.5922 44.7575L36.9469 42.334L37.2329 44.2981C31.9547 46.5012 27.4969 46.3981 22.7672 44.2981L23.0625 42.3012L12.3985 44.7528Z" fill="#777A90"/>
<path d="M36.9468 42.334L36.1358 36.845C34.3188 38.0527 32.1903 38.7071 30.0086 38.7288C27.8269 38.7504 25.6858 38.1383 23.8452 36.9668L23.0624 42.3012L22.7671 44.2981C27.4968 46.3981 31.9546 46.5012 37.2327 44.2981L36.9468 42.334Z" fill="#D1D5DA"/>
<path d="M34.0686 33.4278C34.0684 33.741 33.9439 34.0413 33.7224 34.2628C33.5009 34.4842 33.2006 34.6088 32.8874 34.609H31.0733C30.7601 34.6088 30.4598 34.4842 30.2383 34.2628C30.0169 34.0413 29.8923 33.741 29.8921 33.4278V32.8325C29.8923 32.5193 30.0169 32.2189 30.2383 31.9975C30.4598 31.776 30.7601 31.6515 31.0733 31.6512H32.8874C33.2006 31.6515 33.5009 31.776 33.7224 31.9975C33.9439 32.2189 34.0684 32.5193 34.0686 32.8325V33.4278Z" fill="#F5F6FA"/>
<path d="M36.5765 17.2559C34.7108 19.3043 31.4108 18.17 31.4108 18.17C23.489 15.0856 18.8577 20.1293 18.6421 20.3731V20.6309L18.6983 28.6934V28.7028C18.9112 30.6238 19.6147 32.4578 20.7411 34.0284C21.8676 35.5991 23.3791 36.8535 25.1303 37.6713C26.8816 38.489 28.8138 38.8425 30.7412 38.6978C32.6685 38.5531 34.5263 37.9151 36.1358 36.845C37.5887 35.8848 38.8064 34.6095 39.6983 33.1137C40.5117 31.7638 41.0442 30.2635 41.264 28.7028V28.684C41.3214 28.2847 41.3574 27.8826 41.3718 27.4794V25.3231C41.3718 25.3231 41.3483 25.2762 41.3015 25.1919V25.1778C40.9077 24.3528 38.8874 20.2137 36.5765 17.2559V17.2559Z" fill="#F5F6FA"/>
<path d="M44.25 20.4715C44.3578 20.4716 44.4645 20.4504 44.564 20.4092C44.6636 20.368 44.754 20.3076 44.8302 20.2314C44.9064 20.1552 44.9668 20.0648 45.008 19.9652C45.0492 19.8657 45.0704 19.759 45.0703 19.6512V18.0669C45.0703 13.452 43.5497 9.60357 40.6725 6.93591C37.9739 4.44497 34.2839 3.12778 30 3.12778C20.8453 3.12778 14.9297 8.99185 14.9297 18.0669V19.6559C14.9297 19.8735 15.0161 20.0821 15.17 20.236C15.3238 20.3898 15.5324 20.4762 15.75 20.4762C15.9676 20.4762 16.1762 20.3898 16.33 20.236C16.4839 20.0821 16.5703 19.8735 16.5703 19.6559V18.0669C16.5703 9.98841 21.8438 4.76841 30 4.76841C33.8639 4.76841 37.1719 5.93466 39.5583 8.14013C42.0895 10.4886 43.4297 13.9208 43.4297 18.0669V19.6512C43.4297 19.8688 43.5161 20.0774 43.67 20.2313C43.8238 20.3851 44.0325 20.4715 44.25 20.4715Z" fill="#009A44"/>
<path d="M17.9111 19.1356C17.1596 19.1343 16.4186 19.3127 15.7501 19.6559C15.2985 19.8812 14.8868 20.1789 14.5314 20.5372C13.8616 21.2056 13.4051 22.0577 13.2199 22.9857C13.0347 23.9136 13.129 24.8757 13.4909 25.75C13.8528 26.6244 14.466 27.3717 15.2528 27.8973C16.0397 28.4229 16.9648 28.7032 17.9111 28.7028H18.6986V28.6934L18.6423 20.6309V20.3731L18.6329 20.3825C18.6095 19.9512 18.6001 19.534 18.6095 19.1356H17.9111Z" fill="#009A44"/>
<path d="M41.3719 25.3231C41.4891 22.445 41.4891 20.5043 41.4188 19.1356C41.4047 18.8965 41.3907 18.6762 41.3719 18.47C41.3625 18.3387 41.3532 18.2168 41.3391 18.0997C41.3062 17.7094 41.2514 17.3213 41.175 16.9372C40.4625 13.3606 39.0844 10.5903 35.0625 8.31216L35.0579 8.32622C36.5204 9.11372 37.5375 10.2622 37.7391 11.6403C37.9454 13.6981 37.725 15.1559 37.2704 16.1825C37.0958 16.5739 36.8618 16.936 36.5766 17.2559C38.8875 20.2137 40.9078 24.3528 41.3016 25.1778V25.1918C41.3485 25.2762 41.3719 25.3231 41.3719 25.3231V25.3231Z" fill="#777A90"/>
<path d="M31.4109 18.17C31.4109 18.17 34.7109 19.3043 36.5765 17.2559C36.8617 16.936 37.0957 16.5739 37.2702 16.1825C37.7249 15.1559 37.9452 13.6981 37.739 11.6403C37.5374 10.2622 36.5202 9.11372 35.0577 8.32622C32.189 6.77466 27.6093 6.59184 24.1077 8.71059C21.7265 10.2856 19.0124 12.8543 18.6468 18.109V18.1137C18.6234 18.4418 18.6093 18.784 18.6093 19.1356C18.5999 19.534 18.6093 19.9512 18.6327 20.3825L18.6421 20.3731C18.8577 20.1293 23.489 15.0856 31.4109 18.17V18.17Z" fill="#313647"/>
<path d="M39.703 33.934C39.7252 33.9341 39.7475 33.933 39.7696 33.9308C41.14 33.805 42.4145 33.1738 43.3451 32.1601C44.2757 31.1463 44.7957 29.8225 44.804 28.4464V28.3137C44.804 28.0962 44.7175 27.8875 44.5637 27.7337C44.4099 27.5798 44.2012 27.4934 43.9836 27.4934C43.7661 27.4934 43.5574 27.5798 43.4036 27.7337C43.2498 27.8875 43.1633 28.0962 43.1633 28.3137V28.445C43.1577 29.4057 42.7968 30.3304 42.1501 31.0409C41.5035 31.7514 40.6168 32.1976 39.6608 32.2934L34.0696 32.3122C33.852 32.3122 33.6434 32.3986 33.4895 32.5524C33.3357 32.7063 33.2493 32.9149 33.2493 33.1325C33.2493 33.35 33.3357 33.5587 33.4895 33.7125C33.6434 33.8664 33.852 33.9528 34.0696 33.9528L39.703 33.934Z" fill="#009A44"/>
<path d="M41.372 27.4793C41.3576 27.8825 41.3216 28.2847 41.2642 28.684V28.7028H42.0938C42.7436 28.7047 43.3868 28.5723 43.9829 28.3137C44.8192 27.9547 45.5357 27.3644 46.0482 26.6123C46.5607 25.8601 46.8478 24.9773 46.8758 24.0676C46.9039 23.1579 46.6717 22.259 46.2066 21.4767C45.7415 20.6944 45.0627 20.0611 44.2501 19.6512C43.5829 19.3095 42.8435 19.1327 42.0938 19.1356H41.4188C41.4892 20.5043 41.4892 22.445 41.372 25.3231V27.4793Z" fill="#009A44"/>
<path d="M32.8874 31.6512H31.0733C30.421 31.6512 29.8921 32.1801 29.8921 32.8325V33.4278C29.8921 34.0802 30.421 34.609 31.0733 34.609H32.8874C33.5398 34.609 34.0686 34.0802 34.0686 33.4278V32.8325C34.0686 32.1801 33.5398 31.6512 32.8874 31.6512Z" fill="#009A44"/>
</svg>
