<svg width="60" height="61" viewBox="0 0 60 61" fill="none" xmlns="http://www.w3.org/2000/svg">
<path d="M53.3076 18.158H24.5923V28.1586H53.3076C54.6338 28.1586 55.9056 27.6318 56.8433 26.694C57.7811 25.7563 58.3079 24.4845 58.3079 23.1583C58.3079 21.8321 57.7811 20.5603 56.8433 19.6225C55.9056 18.6848 54.6338 18.158 53.3076 18.158V18.158Z" fill="#F5F6FA"/>
<path d="M16.7732 9.34093C14.4223 9.34093 12.1677 10.2748 10.5054 11.9372C8.84307 13.5995 7.90918 15.8541 7.90918 18.205V44.5021H25.6378V18.205C25.6376 15.854 24.7036 13.5994 23.0412 11.9371C21.3788 10.2748 19.1242 9.34093 16.7732 9.34093V9.34093Z" fill="#D1D5DA"/>
<path d="M27.547 43.161H6.00019C5.20449 43.161 4.44138 43.4771 3.87873 44.0398C3.31609 44.6024 3 45.3655 3 46.1612V50.6615H30.5472V46.1612C30.5472 45.3655 30.2311 44.6024 29.6685 44.0398C29.1058 43.4771 28.3427 43.161 27.547 43.161V43.161Z" fill="#777A90"/>
<path d="M27.261 28.1586H35.0965L38.1067 18.158H30.2712L27.261 28.1586Z" fill="#009A44"/>
<path d="M41.1721 28.1586H49.0076L52.0128 18.158H44.1823L41.1721 28.1586Z" fill="#009A44"/>
<path d="M18.7736 20.3171H14.7733C13.3926 20.3171 12.2732 21.4365 12.2732 22.8173V33.4999C12.2732 34.8807 13.3926 36.0001 14.7733 36.0001H18.7736C20.1544 36.0001 21.2738 34.8807 21.2738 33.4999V22.8173C21.2738 21.4365 20.1544 20.3171 18.7736 20.3171Z" fill="white"/>
</svg>
